<svg id="assinatura-cafedas4" data-name="Assinatura Café das 4" xmlns="http://www.w3.org/2000/svg" viewBox="0 0 89.01 17.01"><title>Assinatura Café das 4</title><path class="assinatura-cafedas4__img__xicara" d="M88.51,5.13a3.63,3.63,0,0,0-1.94-1.74,4.78,4.78,0,0,0-1.72-.31h-1.5V3c0-1.33-.06-2.19-0.07-2.21A0.88,0.88,0,0,0,82.4,0H66a0.89,0.89,0,0,0-.89.82S65,1.69,65,3a29.54,29.54,0,0,0,1.07,8.39,9.93,9.93,0,0,0,2.09,3.86,5.52,5.52,0,0,0,1.74,1.27,5.37,5.37,0,0,0,2.24.47h4a5.4,5.4,0,0,0,2.24-.47A6.2,6.2,0,0,0,81.16,14a12.05,12.05,0,0,0,1.16-2.7,6.74,6.74,0,0,0,.77.29,6.59,6.59,0,0,0,1.4.28h0.25a4.73,4.73,0,0,0,2.43-.66,3.67,3.67,0,0,0,1.3-1.39A5,5,0,0,0,89,7.42a5,5,0,0,0-.49-2.29M87,9a2,2,0,0,1-1.14,1,3.22,3.22,0,0,1-1.1.19H84.61a5.23,5.23,0,0,1-1.69-.47l-0.18-.1Q82.87,9,83,8.33c0.07-.43.12-0.85,0.17-1.27h0.13c1.07-.14,1-1.3,1.33-1.72a1.24,1.24,0,0,1,1.09-.45,2.29,2.29,0,0,1,.66.29,1.86,1.86,0,0,1,.65.73,3.32,3.32,0,0,1,.31,1.53A3.28,3.28,0,0,1,87,9" transform="translate(0.01 0.01)"/><path class="assinatura-cafedas4__img__logotipo" d="M5.2,10.64a2.2,2.2,0,0,1,.2.49,2.58,2.58,0,0,1,.1.6A5.2,5.2,0,0,1,3.61,12a3.45,3.45,0,0,1-2.7-1A3.91,3.91,0,0,1,0,8.32,4.7,4.7,0,0,1,.22,6.84,3.34,3.34,0,0,1,.89,5.66,3.13,3.13,0,0,1,2,4.87a3.72,3.72,0,0,1,1.52-.29,6.81,6.81,0,0,1,1,.07,4.34,4.34,0,0,1,.86.22,2.83,2.83,0,0,1-.06.55A2.38,2.38,0,0,1,5.16,6,4.79,4.79,0,0,0,3.6,5.73,1.88,1.88,0,0,0,2,6.44a3.05,3.05,0,0,0-.53,1.88,2.72,2.72,0,0,0,.6,2,2.19,2.19,0,0,0,1.65.62,5,5,0,0,0,.78-0.06A3.55,3.55,0,0,0,5.2,10.64Zm6-3.46A1.35,1.35,0,0,0,10.82,6,2,2,0,0,0,9.6,5.72a5.19,5.19,0,0,0-.92.08,7,7,0,0,0-.83.2,2.15,2.15,0,0,1-.27-1.1,6.47,6.47,0,0,1,1-.24,7.67,7.67,0,0,1,1.1-.08,3.15,3.15,0,0,1,2.13.63,2.55,2.55,0,0,1,.73,2v4.46q-0.49.11-1.19,0.23A8.66,8.66,0,0,1,10,12a5.69,5.69,0,0,1-1.24-.12,2.52,2.52,0,0,1-.94-0.4,1.87,1.87,0,0,1-.59-0.71,2.36,2.36,0,0,1-.21-1,2.17,2.17,0,0,1,.24-1A2.19,2.19,0,0,1,7.91,8a3,3,0,0,1,1-.45A4.42,4.42,0,0,1,10,7.37l0.73,0,0.48,0V7.18h0Zm0,1.35-0.53-.06-0.55,0a2.28,2.28,0,0,0-1.32.32,1.11,1.11,0,0,0-.45,1,1.19,1.19,0,0,0,.15.65,1.06,1.06,0,0,0,.38.36,1.34,1.34,0,0,0,.51.15l0.53,0c0.21,0,.44,0,0.66,0a4,4,0,0,0,.61-0.1V8.52Zm4.28-2.7H14.34a2.25,2.25,0,0,1-.06-0.54,2.36,2.36,0,0,1,.06-0.54h1.17V4.24a2.78,2.78,0,0,1,.66-2,2.57,2.57,0,0,1,1.94-.69,4.78,4.78,0,0,1,.61,0,3.48,3.48,0,0,1,.5.1,5.45,5.45,0,0,1-.08.6,4.67,4.67,0,0,1-.13.51L18.7,2.74a2.55,2.55,0,0,0-.46,0,2.23,2.23,0,0,0-.55.06,0.9,0.9,0,0,0-.42.24,1.15,1.15,0,0,0-.27.49,2.73,2.73,0,0,0-.1.8V4.74h1.83a3.81,3.81,0,0,1,0,.57,3.1,3.1,0,0,1,0,.51H16.9v6l-0.34,0H15.86l-0.35,0v-6h0Zm5.74,2.82a2.32,2.32,0,0,0,.61,1.71,2.43,2.43,0,0,0,1.71.54,5.17,5.17,0,0,0,1.89-.35,2.1,2.1,0,0,1,.18.51,3.25,3.25,0,0,1,.08.59,4.83,4.83,0,0,1-1,.29,7.07,7.07,0,0,1-1.22.1,4.64,4.64,0,0,1-1.68-.27A2.94,2.94,0,0,1,20,9.84a5,5,0,0,1-.21-1.48A5.22,5.22,0,0,1,20,6.88a3.33,3.33,0,0,1,.62-1.2,3,3,0,0,1,1.06-.81,3.5,3.5,0,0,1,1.5-.3,3.16,3.16,0,0,1,1.3.25,2.64,2.64,0,0,1,.94.69,3,3,0,0,1,.57,1,4.24,4.24,0,0,1,.2,1.31q0,0.19,0,.41t0,0.37H21.26Zm3.55-1a2.61,2.61,0,0,0-.1-0.74,1.88,1.88,0,0,0-.31-0.62,1.5,1.5,0,0,0-.52-0.42,1.63,1.63,0,0,0-.75-0.16,1.65,1.65,0,0,0-1.31.51,2.51,2.51,0,0,0-.55,1.43h3.54Zm-1.51-4L23,3.66H22.25l-0.33,0,1.61-1.76,0.43,0h0.92l0.41,0Zm9.65-1.93,0.35,0H34l0.34,0v10a10.19,10.19,0,0,1-1.19.26,9.42,9.42,0,0,1-1.47.1,5.4,5.4,0,0,1-1.43-.19,2.91,2.91,0,0,1-2-1.73A4.25,4.25,0,0,1,28,8.44a4.55,4.55,0,0,1,.26-1.57A3.52,3.52,0,0,1,29,5.65a3.27,3.27,0,0,1,1.14-.78,3.78,3.78,0,0,1,1.48-.28,4.94,4.94,0,0,1,.73.06,4.77,4.77,0,0,1,.65.14V1.69h0Zm0,4.27a3,3,0,0,0-.6-0.17,4.11,4.11,0,0,0-.7-0.06,2.21,2.21,0,0,0-1,.21,1.93,1.93,0,0,0-.69.57,2.47,2.47,0,0,0-.41.86,4.13,4.13,0,0,0-.13,1.08,2.52,2.52,0,0,0,.63,1.89,2.37,2.37,0,0,0,1.68.57,6.31,6.31,0,0,0,.67,0,3.25,3.25,0,0,0,.54-0.1V6h0Zm7.73,1.22A1.35,1.35,0,0,0,40.26,6,2,2,0,0,0,39,5.72a5.18,5.18,0,0,0-.91.08A7.09,7.09,0,0,0,37.3,6,2.17,2.17,0,0,1,37,4.9a6.44,6.44,0,0,1,1-.24,7.66,7.66,0,0,1,1.1-.08,3.15,3.15,0,0,1,2.13.63,2.55,2.55,0,0,1,.73,2V11.7q-0.49.11-1.19,0.23a8.68,8.68,0,0,1-1.43.12,5.69,5.69,0,0,1-1.24-.12,2.53,2.53,0,0,1-.94-0.4,1.87,1.87,0,0,1-.59-0.72,2.36,2.36,0,0,1-.21-1,2.15,2.15,0,0,1,.24-1A2.19,2.19,0,0,1,37.35,8a3,3,0,0,1,1-.45,4.42,4.42,0,0,1,1.15-.15l0.73,0,0.48,0V7.18h0Zm0,1.35-0.53-.06-0.55,0a2.29,2.29,0,0,0-1.32.32,1.11,1.11,0,0,0-.46,1,1.18,1.18,0,0,0,.15.65,1.05,1.05,0,0,0,.38.36,1.34,1.34,0,0,0,.51.15l0.53,0c0.21,0,.44,0,0.66,0a4,4,0,0,0,.61-0.1V8.52h0Zm3.66,2.06a4.79,4.79,0,0,0,1.73.33,2.65,2.65,0,0,0,.61-0.07,1.64,1.64,0,0,0,.51-0.21,1.17,1.17,0,0,0,.35-0.34,0.8,0.8,0,0,0,.13-0.45,0.9,0.9,0,0,0-.1-0.46,1,1,0,0,0-.28-0.31,1.93,1.93,0,0,0-.4-0.22l-0.5-.17L45.9,8.51a3.53,3.53,0,0,1-1.3-.75,1.55,1.55,0,0,1-.4-1.12,1.83,1.83,0,0,1,.68-1.5,3.07,3.07,0,0,1,2-.56,5.48,5.48,0,0,1,1.07.1,6.52,6.52,0,0,1,.91.24,3.23,3.23,0,0,1-.1.56,3.08,3.08,0,0,1-.19.51,7.23,7.23,0,0,0-.73-0.22,3.85,3.85,0,0,0-.92-0.1,2.19,2.19,0,0,0-.91.18,0.64,0.64,0,0,0-.4.64,0.77,0.77,0,0,0,.1.4,0.93,0.93,0,0,0,.27.28,1.74,1.74,0,0,0,.38.2l0.47,0.17,0.62,0.21a4.62,4.62,0,0,1,.63.26,1.89,1.89,0,0,1,.52.38,1.79,1.79,0,0,1,.35.56,2.27,2.27,0,0,1-.08,1.73,2,2,0,0,1-.59.72,2.81,2.81,0,0,1-.93.46,4.06,4.06,0,0,1-1.2.17A6.62,6.62,0,0,1,45,11.94,6,6,0,0,1,44,11.7a2.77,2.77,0,0,1,.12-0.56c0.06-.18.12-0.37,0.2-0.56h0Zm6.29,0.21-0.11-.15,4.1-8a2.35,2.35,0,0,1,.61.15,3,3,0,0,1,.61.31L52.57,9.57H55.4V6.93l0.33,0h0.68l0.34,0V9.57H58c0,0.1,0,.2,0,0.31s0,0.2,0,.31,0,0.21,0,.31a2.86,2.86,0,0,1,0,.3H56.75V12.7l-0.34,0H55.74l-0.34,0V10.79H50.63Z" transform="translate(0.01 0.01)"/></svg>
